<svg width="45" height="46" viewBox="0 0 45 46" fill="none" xmlns="http://www.w3.org/2000/svg">
<g clip-path="url(#clip0_82_17398)">
<path d="M13.125 0H7.5C5.51088 0 3.60322 0.807736 2.1967 2.24551C0.790176 3.68329 0 5.63334 0 7.66667L0 13.4167C0 15.45 0.790176 17.4 2.1967 18.8378C3.60322 20.2756 5.51088 21.0833 7.5 21.0833H13.125C15.1141 21.0833 17.0218 20.2756 18.4283 18.8378C19.8348 17.4 20.625 15.45 20.625 13.4167V7.66667C20.625 5.63334 19.8348 3.68329 18.4283 2.24551C17.0218 0.807736 15.1141 0 13.125 0V0ZM16.875 13.4167C16.875 14.4333 16.4799 15.4084 15.7766 16.1272C15.0734 16.8461 14.1196 17.25 13.125 17.25H7.5C6.50544 17.25 5.55161 16.8461 4.84835 16.1272C4.14509 15.4084 3.75 14.4333 3.75 13.4167V7.66667C3.75 6.65 4.14509 5.67498 4.84835 4.95609C5.55161 4.2372 6.50544 3.83333 7.5 3.83333H13.125C14.1196 3.83333 15.0734 4.2372 15.7766 4.95609C16.4799 5.67498 16.875 6.65 16.875 7.66667V13.4167Z" fill="#248FCF"/>
<path d="M13.125 24.9166H7.5C5.51088 24.9166 3.60322 25.7244 2.1967 27.1621C0.790176 28.5999 0 30.55 0 32.5833L0 38.3333C0 40.3666 0.790176 42.3167 2.1967 43.7545C3.60322 45.1923 5.51088 46 7.5 46H13.125C15.1141 46 17.0218 45.1923 18.4283 43.7545C19.8348 42.3167 20.625 40.3666 20.625 38.3333V32.5833C20.625 30.55 19.8348 28.5999 18.4283 27.1621C17.0218 25.7244 15.1141 24.9166 13.125 24.9166ZM16.875 38.3333C16.875 39.35 16.4799 40.325 15.7766 41.0439C15.0734 41.7628 14.1196 42.1667 13.125 42.1667H7.5C6.50544 42.1667 5.55161 41.7628 4.84835 41.0439C4.14509 40.325 3.75 39.35 3.75 38.3333V32.5833C3.75 31.5666 4.14509 30.5916 4.84835 29.8727C5.55161 29.1538 6.50544 28.75 7.5 28.75H13.125C14.1196 28.75 15.0734 29.1538 15.7766 29.8727C16.4799 30.5916 16.875 31.5666 16.875 32.5833V38.3333Z" fill="#248FCF"/>
<path d="M37.5002 24.9166H31.8752C29.8861 24.9166 27.9785 25.7244 26.5719 27.1621C25.1654 28.5999 24.3752 30.55 24.3752 32.5833V38.3333C24.3752 40.3666 25.1654 42.3167 26.5719 43.7545C27.9785 45.1923 29.8861 46 31.8752 46H37.5002C39.4893 46 41.397 45.1923 42.8035 43.7545C44.21 42.3167 45.0002 40.3666 45.0002 38.3333V32.5833C45.0002 30.55 44.21 28.5999 42.8035 27.1621C41.397 25.7244 39.4893 24.9166 37.5002 24.9166ZM41.2502 38.3333C41.2502 39.35 40.8551 40.325 40.1519 41.0439C39.4486 41.7628 38.4948 42.1667 37.5002 42.1667H31.8752C30.8807 42.1667 29.9268 41.7628 29.2236 41.0439C28.5203 40.325 28.1252 39.35 28.1252 38.3333V32.5833C28.1252 31.5666 28.5203 30.5916 29.2236 29.8727C29.9268 29.1538 30.8807 28.75 31.8752 28.75H37.5002C38.4948 28.75 39.4486 29.1538 40.1519 29.8727C40.8551 30.5916 41.2502 31.5666 41.2502 32.5833V38.3333Z" fill="#248FCF"/>
<path d="M26.2502 13.4166H31.8752V19.1666C31.8752 19.675 32.0728 20.1625 32.4244 20.5219C32.776 20.8814 33.253 21.0833 33.7502 21.0833C34.2475 21.0833 34.7244 20.8814 35.0761 20.5219C35.4277 20.1625 35.6252 19.675 35.6252 19.1666V13.4166H41.2502C41.7475 13.4166 42.2244 13.2147 42.5761 12.8552C42.9277 12.4958 43.1252 12.0083 43.1252 11.5C43.1252 10.9916 42.9277 10.5041 42.5761 10.1447C42.2244 9.78523 41.7475 9.58329 41.2502 9.58329H35.6252V3.83329C35.6252 3.32496 35.4277 2.83745 35.0761 2.478C34.7244 2.11856 34.2475 1.91663 33.7502 1.91663C33.253 1.91663 32.776 2.11856 32.4244 2.478C32.0728 2.83745 31.8752 3.32496 31.8752 3.83329V9.58329H26.2502C25.753 9.58329 25.276 9.78523 24.9244 10.1447C24.5728 10.5041 24.3752 10.9916 24.3752 11.5C24.3752 12.0083 24.5728 12.4958 24.9244 12.8552C25.276 13.2147 25.753 13.4166 26.2502 13.4166Z" fill="#248FCF"/>
</g>
<defs>
<clipPath id="clip0_82_17398">
<rect width="45" height="46" fill="white"/>
</clipPath>
</defs>
</svg>
